<svg width="72" height="64" viewBox="0 0 72 64" fill="none" xmlns="http://www.w3.org/2000/svg">
<g filter="url(#filter0_d_31_630)">
<path fill-rule="evenodd" clip-rule="evenodd" d="M33.1975 32.7401C33.7942 31.2298 34.4458 29.5804 34.2374 28.0651C34.1068 27.117 33.4885 26.0866 32.81 25.6548C32.7972 25.647 32.7651 25.6227 32.7305 25.5966L32.7304 25.5965C32.6892 25.5654 32.6448 25.5318 32.6259 25.5207C32.1238 25.2299 31.3198 24.9848 30.76 24.9271C27.8739 24.6311 26.1522 25.9134 25.1625 27.641C24.7731 28.3196 24.5153 29.0608 24.3143 29.8463C24.0921 30.7163 23.9326 31.7714 24.0599 32.7299C24.1362 33.304 24.4517 34.12 24.908 34.5958C25.9137 35.644 27.7843 35.6311 29.8546 35.6169C30.0974 35.6152 30.3431 35.6135 30.5904 35.6135C31.3122 35.6135 33.0432 35.5991 33.5656 35.5855C33.7344 35.5804 34.2187 33.6094 34.1755 33.5457C34.1565 33.5233 34.0257 33.5254 33.8264 33.5287C33.5897 33.5326 33.2564 33.5381 32.8991 33.5059C32.9938 33.2557 33.0948 33.0001 33.1974 32.7403L33.1975 32.7401ZM31.4137 30.7131C31.3639 30.878 31.3143 31.042 31.2689 31.2032L31.2188 31.381C31.022 32.0799 30.8249 32.7799 30.5904 33.4084C30.3151 33.4068 30.043 33.4114 29.778 33.416C28.3929 33.4397 27.2024 33.4601 26.7738 32.5602C26.4855 31.9538 26.6153 31.1328 26.7738 30.3551C26.9867 29.3077 27.1902 28.5469 27.7917 27.8955C28.2565 27.3926 29.426 26.776 30.6753 27.2171C31.09 27.3637 31.7329 28.0618 31.7778 28.8284C31.8109 29.3999 31.61 30.0642 31.4137 30.7131Z" fill="#21609B"/>
<path d="M64.5299 25.9304L67.1447 25.9448C67.1447 25.9448 62.2832 32.5322 61.8863 33.0691C61.8486 33.12 61.8051 33.172 61.7599 33.2261C61.6509 33.3566 61.5324 33.4985 61.4622 33.6628C61.2112 34.2471 60.9534 35.5287 60.9534 35.5287L58.5609 35.5406C58.5609 35.5406 58.9331 34.2047 58.9178 33.4932C58.9086 33.0677 58.757 32.6426 58.6052 32.2168C58.5352 32.0205 58.4651 31.824 58.409 31.6273C58.2291 30.9963 57.9849 29.7614 57.9849 29.7614H60.4445L60.7837 31.1184L64.5299 25.9304Z" fill="#21609B"/>
<path d="M60.3573 29.2153C60.3573 29.2153 60.0612 27.6106 59.5786 27.3197C59.1754 27.0771 58.3461 27.1008 57.4989 27.1251C57.2415 27.1324 56.9824 27.1398 56.7331 27.1398H55.0767C54.9364 27.1398 54.8038 27.1386 54.6791 27.1374C53.8826 27.1299 53.4112 27.1254 53.3203 27.4715C52.9963 28.7081 51.624 35.5287 51.624 35.5287H53.8291L55.2709 29.2525H56.4583C57.8324 29.2525 60.3573 29.2153 60.3573 29.2153Z" fill="#21609B"/>
<path fill-rule="evenodd" clip-rule="evenodd" d="M51.1364 32.143C51.1364 32.143 51.6716 29.7632 51.3908 28.7505C51.3748 28.6929 51.3591 28.6304 51.3431 28.5662C51.2897 28.3523 51.2316 28.1196 51.1364 27.9872C50.6742 27.3425 49.7276 27.1186 49.1008 27.0542C47.436 26.8837 46.0501 27.329 45.2843 27.9024L45.2439 27.9325C45.0302 28.0918 44.8502 28.226 44.6906 28.4113C44.6294 28.4824 44.5634 28.5621 44.5066 28.6444C44.4841 28.6762 44.4597 28.7033 44.4352 28.7305C44.4062 28.7628 44.3771 28.7952 44.3513 28.8352C44.3081 28.9009 44.2632 29.0025 44.2146 29.1125C44.1842 29.1815 44.1522 29.2539 44.1182 29.3229C44.0507 29.4602 43.9863 29.6207 43.9341 29.751L43.9272 29.7682C43.4676 30.9165 42.9986 33.0597 43.4184 34.1784C43.4804 34.3439 43.6186 34.5533 43.666 34.617C43.6869 34.645 43.7071 34.6746 43.7274 34.7042C43.7646 34.7587 43.8018 34.813 43.8425 34.8569C44.0723 35.1046 44.4125 35.2793 44.7754 35.3658C46.6134 35.8043 50.2882 35.6202 50.2882 35.6202L50.7386 33.6255C50.7386 33.6255 48.1382 33.7426 46.8957 33.5848C46.8729 33.5819 46.8452 33.5789 46.8135 33.5755C46.5869 33.5515 46.1601 33.5062 45.9271 33.3023C45.6964 33.1006 45.4242 32.623 45.6236 32.3126C45.7341 32.1398 46.1055 32.1422 46.4895 32.1447C46.5975 32.1454 46.7065 32.1461 46.811 32.143C48.3417 32.0963 51.1364 32.143 51.1364 32.143ZM49.0796 29.5069C49.3816 29.9734 49.3129 30.3763 49.3129 30.3763L46.0264 30.3551C46.0264 30.3551 45.9891 28.9353 47.9051 28.9956C48.5836 29.0168 48.8219 29.1092 49.0796 29.5069Z" fill="#21609B"/>
<path d="M43.4149 27.1195L41.2768 27.1322L39.7502 33.4932C39.7502 33.4932 38.9055 33.4991 38.6476 33.4932C37.8334 33.4745 37.5663 33.4474 37.3754 33.0691C37.2193 32.7599 37.3007 32.3851 37.3886 31.981C37.4137 31.8652 37.4394 31.747 37.4602 31.6273C37.7206 30.1261 38.3466 27.1195 38.3466 27.1195L36.1313 27.1398C36.1313 27.1398 35.7097 29.071 35.5095 30.0158C35.4694 30.2048 35.4229 30.4064 35.3744 30.6166C35.0803 31.8917 34.7127 33.4851 35.2551 34.5109C35.8209 35.58 37.0505 35.5597 38.4906 35.536C38.7083 35.5324 38.9307 35.5287 39.1564 35.5287H41.6161C42.2234 32.7723 43.4149 27.1195 43.4149 27.1195Z" fill="#21609B"/>
<path d="M23.6459 27.9466C23.5594 28.3615 23.4718 28.7817 23.3814 29.1677H21.0066C21.0798 28.8851 21.1461 28.6032 21.211 28.3272L21.2111 28.3271C21.3094 27.909 21.4046 27.5046 21.5155 27.1322C21.8865 27.1322 22.2448 27.1346 22.6115 27.1371C22.9958 27.1397 23.3894 27.1423 23.8165 27.1423C23.7598 27.4005 23.7031 27.6724 23.6459 27.9466Z" fill="#21609B"/>
<path d="M20.9218 29.7614H23.2116C22.9123 31.4187 22.3195 34.0919 21.8547 35.9527L21.8311 36.0472C21.5527 37.1634 21.3481 37.9838 20.5824 38.5819C20.5482 38.6087 20.521 38.6163 20.4953 38.6235C20.4683 38.631 20.443 38.6381 20.4129 38.6668C20.2678 38.8051 19.5969 38.9654 19.2255 39.006C18.7837 39.0538 18.2998 39.0362 17.7813 39.0173L17.7812 39.0173C17.5909 39.0104 17.3959 39.0033 17.1968 38.9993C17.3011 38.6178 17.4129 38.1951 17.5208 37.787C17.6136 37.4357 17.7037 37.0951 17.7837 36.8009C19.3585 36.9914 19.5971 35.7203 19.8636 34.3015C19.9032 34.0904 19.9435 33.8761 19.9888 33.6628C20.1915 32.7112 20.8056 30.1431 20.9218 29.7614Z" fill="#21609B"/>
<path d="M14.3063 30.0658C14.6966 29.9827 15.5803 29.3179 15.7338 28.9659C14.4631 29.8306 13.6551 29.5881 13.2477 29.4659C13.2304 29.4607 13.2138 29.4557 13.1979 29.451C13.1121 29.4265 12.9137 29.3374 12.7289 29.2263L12.691 29.2036C12.3056 28.9721 12.1056 28.8521 11.7959 28.4018C11.6203 28.1467 11.4448 27.7411 11.3872 27.5087C11.2921 27.1245 11.3184 26.5334 11.4991 26.0245C10.8994 26.5597 10.8069 27.5936 11.008 28.2772C11.0335 28.3637 11.176 28.7038 11.2531 28.8284C11.7714 29.6622 12.7611 30.395 14.3063 30.0658Z" fill="#21609B"/>
<path d="M13.2038 32.3906C14.1911 32.3974 15.2224 31.9359 15.833 31.2881C15.2988 32.6443 13.7518 33.516 11.6772 33.2387C9.94029 33.0063 8.2856 31.2584 8.1151 29.5069C7.99046 28.2323 8.43479 27.4715 9.16683 26.5487C8.9124 27.0314 8.81733 27.4036 8.79362 27.641C8.51549 30.3983 10.9962 32.3762 13.2038 32.3906Z" fill="#21609B"/>
<path d="M15.5295 34.2141L15.5786 34.0869C14.8408 34.8307 13.6381 35.3472 12.695 35.4438C8.77063 35.8459 4.73363 32.3303 6.04398 28.228L6.09402 28.0651C6.08002 28.0651 6.13515 27.9697 6.19029 27.8743C6.24543 27.7789 6.30056 27.6835 6.28655 27.6835C4.46819 29.4434 4.62587 31.7994 5.50039 33.4932C6.11007 34.6747 7.22633 35.7805 8.55356 36.3768C9.1685 36.6525 10.1099 36.906 11.098 36.8856C13.2115 36.8416 14.6932 35.8424 15.5295 34.2141Z" fill="#21609B"/>
</g>
<defs>
<filter id="filter0_d_31_630" x="0" y="0" width="72" height="72" filterUnits="userSpaceOnUse" color-interpolation-filters="sRGB">
<feFlood flood-opacity="0" result="BackgroundImageFix"/>
<feColorMatrix in="SourceAlpha" type="matrix" values="0 0 0 0 0 0 0 0 0 0 0 0 0 0 0 0 0 0 127 0" result="hardAlpha"/>
<feOffset dy="4"/>
<feGaussianBlur stdDeviation="2"/>
<feComposite in2="hardAlpha" operator="out"/>
<feColorMatrix type="matrix" values="0 0 0 0 0 0 0 0 0 0 0 0 0 0 0 0 0 0 0.25 0"/>
<feBlend mode="normal" in2="BackgroundImageFix" result="effect1_dropShadow_31_630"/>
<feBlend mode="normal" in="SourceGraphic" in2="effect1_dropShadow_31_630" result="shape"/>
</filter>
</defs>
</svg>
