<svg width="50" height="50" viewBox="0 0 50 50" fill="none" xmlns="http://www.w3.org/2000/svg">
<path fill-rule="evenodd" clip-rule="evenodd" d="M6.94203 45.0016L2.92969 0H47.019L43.0023 44.9942L24.9477 50L6.94203 45.0016Z" fill="#0071BC"/>
<path fill-rule="evenodd" clip-rule="evenodd" d="M25.0115 46.1714L39.5824 42.1629L42.9964 3.74768H25.0115V46.1714Z" fill="#29ABE2"/>
<path fill-rule="evenodd" clip-rule="evenodd" d="M12.114 20.2811L12.5973 25.7922L25.0115 20.2811V14.761L12.114 20.2811Z" fill="#B3B3B3"/>
<path fill-rule="evenodd" clip-rule="evenodd" d="M38.7605 8.86853L25.0115 14.761V20.281L38.2864 14.3797L38.7605 8.86853Z" fill="#E6E6E6"/>
<path fill-rule="evenodd" clip-rule="evenodd" d="M25.0113 34.7009L24.9687 34.7073L18.8122 33.0539L18.41 28.658H12.8691L13.6424 37.3183L24.9675 40.454L25.0113 40.4436V34.7009Z" fill="#E6E6E6"/>
<path fill-rule="evenodd" clip-rule="evenodd" d="M25.0115 20.2811V25.7922H31.7518L31.1392 32.9976L25.0115 34.7056V40.4479L36.299 37.3122L37.7854 20.2811H25.0115Z" fill="white"/>
<path fill-rule="evenodd" clip-rule="evenodd" d="M25.0115 20.2811H12.114L12.5973 25.7922H25.0115V20.2811Z" fill="#E6E6E6"/>
<path fill-rule="evenodd" clip-rule="evenodd" d="M25.0114 14.3797V8.86853H24.9554H11.134L11.6231 14.3797H25.0114Z" fill="#E6E6E6"/>
<path fill-rule="evenodd" clip-rule="evenodd" d="M25.0115 8.86853V14.3106V14.3797H38.2864L38.7605 8.86853H25.0115Z" fill="white"/>
</svg>
