<svg width="34" height="50" viewBox="0 0 34 50" fill="none" xmlns="http://www.w3.org/2000/svg">
<path d="M16.8919 25C16.8919 22.7899 17.7817 20.6702 19.3657 19.1074C20.9496 17.5446 23.0978 16.6667 25.3378 16.6667C27.5778 16.6667 29.7261 17.5446 31.31 19.1074C32.8939 20.6702 33.7838 22.7899 33.7838 25C33.7838 27.2101 32.8939 29.3298 31.31 30.8926C29.7261 32.4554 27.5778 33.3333 25.3378 33.3333C23.0978 33.3333 20.9496 32.4554 19.3657 30.8926C17.7817 29.3298 16.8919 27.2101 16.8919 25Z" fill="#1ABCFE"/>
<path d="M0 41.6667C0 39.4565 0.889838 37.3369 2.47376 35.7741C4.05768 34.2113 6.20594 33.3333 8.44595 33.3333H16.8919V41.6667C16.8919 43.8768 16.0021 45.9964 14.4181 47.5592C12.8342 49.122 10.686 50 8.44595 50C6.20594 50 4.05768 49.122 2.47376 47.5592C0.889838 45.9964 0 43.8768 0 41.6667Z" fill="#0ACF83"/>
<path d="M16.8919 0V16.6667L25.3378 16.6667C27.5778 16.6667 29.7261 15.7887 31.31 14.2259C32.8939 12.6631 33.7838 10.5435 33.7838 8.33333C33.7838 6.1232 32.8939 4.00358 31.31 2.44078C29.7261 0.877974 27.5778 0 25.3378 0H16.8919Z" fill="#FF7262"/>
<path d="M0 8.33333C0 10.5435 0.889838 12.6631 2.47376 14.2259C4.05768 15.7887 6.20594 16.6667 8.44595 16.6667H16.8919V0H8.44595C6.20594 0 4.05768 0.877974 2.47376 2.44078C0.889838 4.00358 0 6.1232 0 8.33333Z" fill="#F24E1E"/>
<path d="M0 25C0 27.2101 0.889838 29.3298 2.47376 30.8926C4.05768 32.4554 6.20594 33.3333 8.44595 33.3333H16.8919L16.8919 16.6667H8.44595C6.20594 16.6667 4.05768 17.5446 2.47376 19.1074C0.889838 20.6702 0 22.7899 0 25Z" fill="#A259FF"/>
</svg>
