<svg width="50" height="50" viewBox="0 0 50 50" fill="none" xmlns="http://www.w3.org/2000/svg">
<path fill-rule="evenodd" clip-rule="evenodd" d="M0 0H50V50H0V0Z" fill="#F7DF1E"/>
<path fill-rule="evenodd" clip-rule="evenodd" d="M13.1468 41.7836L16.9732 39.468C17.7113 40.7768 18.3828 41.8842 19.9936 41.8842C21.5375 41.8842 22.5109 41.2802 22.5109 38.931V22.9548H27.2097V38.9975C27.2097 43.8641 24.357 46.0793 20.195 46.0793C16.4362 46.0793 14.2543 44.1325 13.1467 41.7832" fill="black"/>
<path fill-rule="evenodd" clip-rule="evenodd" d="M29.762 41.2802L33.5878 39.065C34.595 40.7098 35.9039 41.918 38.2197 41.918C40.1666 41.918 41.4081 40.9446 41.4081 39.602C41.4081 37.991 40.1328 37.4203 37.9847 36.4809L36.8103 35.9771C33.4202 34.5342 31.1714 32.7218 31.1714 28.8955C31.1714 25.3714 33.8564 22.6862 38.052 22.6862C41.0391 22.6862 43.1871 23.7268 44.7309 26.4454L41.0724 28.7947C40.2669 27.3516 39.3945 26.7811 38.052 26.7811C36.6759 26.7811 35.8032 27.6538 35.8032 28.7947C35.8032 30.2044 36.6759 30.7751 38.6895 31.6478L39.8641 32.1512C43.8582 33.863 46.107 35.6081 46.107 39.5349C46.107 43.7641 42.7843 46.0797 38.3205 46.0797C33.9573 46.0797 31.1379 43.9989 29.762 41.2802" fill="black"/>
</svg>
