<svg width="50" height="50" viewBox="0 0 50 50" fill="none" xmlns="http://www.w3.org/2000/svg">
<path fill-rule="evenodd" clip-rule="evenodd" d="M15.3652 30.5957C14.457 31.0927 13.0887 31.8978 12.0301 32.7735C10.2922 34.2096 9.92851 36.2016 10.8453 36.6669C11.6934 37.0971 13.6732 36.5852 15.0902 35.2329C16.5773 33.8131 17.1906 32.0132 16.5572 29.9699C16.4828 30.0087 16.4098 30.0477 16.3381 30.0839L16.3396 30.0866L16.2436 30.1343C15.8738 30.3274 15.5717 30.4867 15.3652 30.5957ZM40.8869 29.9511C40.3725 30.9293 40.3467 31.2441 40.5029 31.3421C41.2494 31.1074 42.4844 30.5419 42.4941 29.0265C42.4957 28.7996 42.4385 28.5561 42.3467 28.3016C41.5486 28.9199 41.0887 29.5673 40.8869 29.9511ZM48.8967 26.9934C46.9025 26.79 45.3465 27.0347 44.1389 27.475C44.3625 27.9842 44.5344 28.5147 44.5586 29.0491C44.6146 30.222 43.692 31.09 42.7305 31.7097C42.1689 32.0709 41.5715 32.3117 41.0699 32.4572C40.6689 32.6052 40.1359 32.7581 39.7576 32.6906C38.9236 32.5423 38.4797 31.8941 39.0471 30.4641C39.3535 29.6903 40.2375 28.5123 41.6645 27.4977C41.3393 26.9118 40.9768 26.3149 40.792 25.7665C40.4279 24.6854 40.318 24.0319 40.318 24.0319C40.318 24.0319 39.1418 26.1655 37.6244 28.1059C37.5369 28.2187 37.4496 28.3293 37.3621 28.4395C37.6602 29.0455 37.8949 29.6864 37.9268 30.3326C37.9826 31.5053 37.4023 32.392 36.4395 33.0104C35.9182 33.3467 35.3621 33.5789 34.885 33.7268C34.5799 33.8433 33.9594 34.0351 33.077 34.0867C32.5943 34.1156 32.1301 34.0894 31.8709 33.9175C31.5141 33.6817 31.4711 33.3906 31.6559 32.9929C31.8121 32.6554 32.9811 31.4878 33.9611 30.4655C34.2318 30.1832 34.4897 29.8947 34.7203 29.6276L34.7146 29.6161C34.7146 29.6161 34.8922 29.4157 35.1803 29.0657C34.8221 28.3908 34.368 27.6882 34.1545 27.0511C33.7904 25.97 33.6803 25.3163 33.6803 25.3163C33.6803 25.3163 32.4881 27.9907 31.2461 30.1256C30.285 31.779 29.643 32.781 29.3537 33.2201L29.3508 33.2377C29.3508 33.2377 29.3076 33.3017 29.2332 33.4021L29.1775 33.4834L29.176 33.4759C28.8535 33.8925 28.1301 34.7089 27.4109 34.7089C25.4367 34.7089 26.1615 31.2005 26.1615 31.2005C26.1615 31.2005 25.5844 32.5001 24.9338 33.6152C24.4039 34.5245 23.9211 35.2949 22.8652 35.2949C22.5615 35.2949 22.0801 35.2872 21.6803 34.9547C20.7734 34.2008 20.0801 32.2866 20.216 30.8041C20.332 29.5435 20.5541 28.6704 20.8578 27.9419C20.3162 28.2001 19.6902 28.5063 19.0527 28.8338L18.0727 29.3391L18.1043 29.3894C18.915 30.7617 19.1314 33.7683 17.3635 36.0763C15.5957 38.3855 12.3049 39.7904 9.09863 39.0103C8.06406 38.758 6.50117 36.8853 7.84922 34.275C9.03828 31.9732 13.7904 29.797 15.0428 29.2538L15.3865 29.0882C12.8896 27.1766 6.65449 24.5977 5.78066 20.6364C5.53418 19.5213 6.13164 16.8546 9.87363 13.789C13.0211 11.2114 17.3994 9.23699 21.4439 7.97883C28.2389 5.86533 35.4182 7.11203 36.5227 10.9027C37.6086 14.6307 33.9125 19.09 29.1789 20.693C24.9525 22.1241 21.4582 21.8972 20.0227 21.4846C18.3908 21.0155 17.4338 20.0733 17.2004 19.5415C17.1086 19.3333 16.9508 18.9835 17.2004 18.863C17.3535 18.789 17.415 18.8066 17.8248 19.2029C18.2146 19.5793 19.7818 20.5891 22.759 20.2967C30.5715 19.5304 35.2775 14.2156 33.7904 11.3556C32.749 9.35371 26.7275 8.45051 19.2045 11.7331C10.0211 15.7395 9.52266 19.0423 9.44394 20.2967C9.22891 23.7473 14.3076 25.5624 17.0557 28.1286L17.1615 28.2303C17.6758 27.982 18.2189 27.7199 18.7518 27.464C20.1373 26.7979 21.4439 26.173 22.0527 25.882C23.0199 24.6519 24.9824 23.2944 26.3994 23.2944C28.6645 23.2944 27.8865 26.1431 27.8865 26.1431C27.8865 26.1431 27.9324 26.0127 27.9939 26.0115C28.0584 26.01 28.3078 25.6363 29.007 25.8594C29.7262 26.0903 29.5627 26.5319 29.5672 26.5771C29.5758 26.6647 28.7176 29.1973 28.3609 30.8217C28.1902 31.5969 28.2891 32.1615 28.3395 32.1615C28.4096 32.1615 28.5529 31.9645 28.6861 31.7525L28.6832 31.7462C28.6832 31.7462 28.7834 31.5858 28.9512 31.2973L28.9842 31.2369L28.9855 31.2397C29.1834 30.901 29.4611 30.403 29.782 29.7858C30.4109 28.573 32.8105 23.8904 33.0141 23.3724C33.2174 22.8544 33.3234 22.3188 33.4238 22.0891C33.5227 21.8596 34.3709 21.6864 35.3621 21.6928C36.3535 21.6991 36.4541 22.0691 36.4609 22.1456C36.4682 22.222 35.9897 23.2495 35.8793 23.9756C35.7705 24.702 35.8752 25.0643 35.9654 25.674C36.0242 26.0727 36.3092 26.5784 36.6461 27.1516C37.6719 25.6839 39.4768 22.8768 39.6502 22.0903C39.7689 21.5523 39.9596 21.0367 40.06 20.807C40.1602 20.5775 41.007 20.4045 41.9982 20.4107C42.9896 20.417 43.0898 20.787 43.0971 20.8636C43.1043 20.9401 42.6242 21.9674 42.5154 22.6937C42.4064 23.4187 42.5113 23.7825 42.6014 24.3921C42.6789 24.9139 43.14 25.6151 43.5973 26.4126C44.8449 25.8745 46.3135 25.5134 48.0328 25.5059C48.7447 25.5023 49.5715 25.5648 49.9984 25.6814V13.681C49.9984 12.8344 49.5025 12.0543 48.6646 11.6316L26.2922 0.317102C25.4557 -0.105701 24.4312 -0.105701 23.5945 0.317102L1.28379 11.6262C0.44707 12.049 0 12.8305 0 13.6757V36.3145C0 37.1598 0.449805 37.9413 1.28516 38.3639L23.6318 49.6819C24.4684 50.106 25.4828 50.106 26.3193 49.6819L48.6762 38.3639C49.5127 37.9399 50 37.1596 50 36.3145V27.1653C49.7162 27.0921 49.3008 27.0345 48.8967 26.9934ZM24.8279 25.8078C24.348 26.2782 23.5301 27.491 23.1475 28.5062C22.3867 30.5217 22.7162 32.5701 23.2549 32.6932C23.8838 32.8372 24.9154 30.143 25.4094 29.0893C25.7189 28.4294 26.9225 25.5007 26.6588 25.1094C26.4529 24.8033 25.6002 25.0504 24.8279 25.8078ZM33.5316 32.6014C33.5316 32.6014 33.3799 32.727 33.4455 32.762C33.5344 32.8085 33.7264 32.7482 33.9355 32.6528C34.5273 32.3269 35.8553 31.514 35.8582 30.311C35.8582 30.276 35.8566 30.2421 35.8539 30.2057C35.5459 30.5595 35.2621 30.8743 35.0172 31.1414C34.5988 31.5967 33.5316 32.6014 33.5316 32.6014Z" fill="#8CC84B"/>
</svg>
